<?xml version="1.0" encoding="UTF-8" standalone="no"?>
<!DOCTYPE svg PUBLIC "-//W3C//DTD SVG 1.1//EN" "http://www.w3.org/Graphics/SVG/1.1/DTD/svg11.dtd">
<svg width="100%" height="100%" viewBox="0 0 90 90" version="1.1" xmlns="http://www.w3.org/2000/svg" xmlns:xlink="http://www.w3.org/1999/xlink" xml:space="preserve" xmlns:serif="http://www.serif.com/" style="fill-rule:evenodd;clip-rule:evenodd;stroke-linejoin:round;stroke-miterlimit:2;">
    <g transform="matrix(1.24859,0,0,1.24859,-11.1866,-0.504284)">
        <g>
            <path d="M44.841,51.61L23.913,39.526L23.913,15.36L44.841,3.277L65.77,15.36L65.77,29.004L60.712,26.083L60.712,18.28L44.841,9.118L28.971,18.28L28.971,36.606L44.841,45.769L44.841,51.61Z" style="fill:rgb(147,191,207);"/>
            <path d="M45.159,21.279L66.087,33.362L66.087,57.528L45.159,69.612L24.23,57.528L24.23,43.884L29.288,46.805L29.288,54.608L45.159,63.771L61.029,54.608L61.029,36.282L45.159,27.12L45.159,21.279Z" style="fill:rgb(147,191,207);"/>
        </g>
    </g>
</svg>
