<?xml version="1.0" encoding="UTF-8" standalone="no"?>
<!DOCTYPE svg PUBLIC "-//W3C//DTD SVG 1.1//EN" "http://www.w3.org/Graphics/SVG/1.1/DTD/svg11.dtd">
<svg width="100%" height="100%" viewBox="0 0 704 824" version="1.1" xmlns="http://www.w3.org/2000/svg" xmlns:xlink="http://www.w3.org/1999/xlink" xml:space="preserve" xmlns:serif="http://www.serif.com/" style="fill-rule:evenodd;clip-rule:evenodd;stroke-linecap:round;stroke-linejoin:round;stroke-miterlimit:1.5;">
    <g transform="matrix(1,0,0,1,-842.894,-2207.96)">
        <g>
            <g transform="matrix(0.53004,0,0,0.53004,514.124,1904.39)">
                <path d="M884.839,1469.63C877.148,1442.28 870.965,1420.29 866.289,1403.66C862.763,1391.52 857.474,1380.74 850.422,1371.34C843.761,1361.94 834.554,1353.32 822.801,1345.48C813.006,1338.82 801.449,1333.93 788.128,1330.79C775.2,1327.27 763.446,1325.11 752.868,1324.33L752.868,1282.6L1093.13,1282.6L1093.13,1324.33C1063.35,1325.89 1037.89,1328.83 1016.73,1333.14C995.968,1337.45 985.586,1344.7 985.586,1354.89C985.586,1358.8 986.174,1364.09 987.349,1370.75C988.524,1377.02 989.504,1382.12 990.287,1386.03C995.946,1407.68 1004.31,1438.22 1015.38,1477.64C999.879,1480.96 982.69,1482.56 963.826,1482.56C934.758,1482.56 908.413,1478.33 884.839,1469.63ZM1045.81,1584.24C1068.54,1662.44 1099.98,1772.09 1140.14,1913.17L1348.18,1294.36L1405.77,1294.36L1615.57,1926.69C1643.78,1829.53 1668.07,1744.71 1688.44,1672.23C1708.81,1599.36 1725.66,1537.06 1738.98,1485.35C1748.38,1448.91 1754.26,1424.04 1756.61,1410.71C1758.96,1397 1760.14,1385.44 1760.14,1376.04C1760.14,1362.72 1750.93,1351.56 1732.52,1342.55C1714.49,1333.53 1685.11,1327.46 1644.37,1324.33L1644.37,1282.6L1947.02,1282.6L1947.02,1324.33C1937.22,1324.72 1925.86,1327.07 1912.93,1331.38C1900,1335.3 1888.05,1340.59 1877.08,1347.25C1863.37,1355.87 1852.2,1365.86 1843.59,1377.22C1835.36,1388.19 1828.11,1403.66 1821.84,1423.64C1794.03,1514.14 1761.7,1619.93 1724.88,1740.99C1688.05,1861.65 1648.28,1990.36 1605.58,2127.09L1551.51,2127.09L1341.13,1485.35L1121.93,2127.09L1070.21,2127.09C1031.42,1989.96 991.267,1847.75 949.738,1700.44C938.746,1661.34 928.715,1625.67 919.645,1593.41C929.89,1594.12 940.135,1594.47 950.379,1594.47C984.057,1594.47 1015.86,1591.05 1045.81,1584.24ZM1216.61,1110.59C1236.78,1133 1251.57,1157.65 1260.99,1184.55C1270.85,1210.99 1275.78,1241.92 1275.78,1277.32C1275.78,1361.59 1244.63,1431.06 1182.33,1485.74C1120.03,1540.42 1042.71,1567.76 950.379,1567.76C907.8,1567.76 865.22,1561.26 822.641,1548.27C780.061,1534.82 743.308,1518.68 712.382,1499.86L683.473,1548.94L629.688,1548.94L620.275,1222.19L674.733,1222.19C685.938,1262.53 698.936,1299.06 713.726,1331.78C728.965,1364.05 748.911,1394.31 773.562,1422.54C796.869,1448.99 823.985,1470.05 854.911,1485.74C886.286,1501.43 922.591,1509.27 963.826,1509.27C994.752,1509.27 1021.64,1505.24 1044.5,1497.17C1067.81,1489.1 1086.63,1477.67 1100.98,1462.88C1115.32,1448.09 1125.85,1430.84 1132.58,1411.11C1139.75,1390.94 1143.33,1367.86 1143.33,1341.87C1143.33,1303.77 1132.58,1268.36 1111.06,1235.64C1089.55,1202.47 1057.5,1177.37 1014.92,1160.34C985.788,1148.69 952.396,1135.91 914.747,1122.02C877.098,1107.68 844.603,1094.23 817.262,1081.68C763.477,1057.48 721.57,1025.88 691.54,986.887C661.959,947.445 647.168,896.125 647.168,832.928C647.168,796.623 654.563,762.783 669.354,731.409C684.145,700.035 705.211,672.022 732.551,647.37C758.547,624.064 789.249,605.911 824.658,592.913C860.066,579.467 897.043,572.744 935.589,572.744C979.513,572.744 1018.73,579.467 1053.24,592.913C1088.2,606.359 1120.03,622.047 1148.71,639.975L1176.28,594.258L1230.06,594.258L1235.44,910.916L1180.98,910.916C1171.12,874.611 1159.92,839.875 1147.37,806.708C1135.27,773.54 1119.35,743.511 1099.63,716.618C1080.36,690.622 1056.83,670.005 1029.04,654.766C1001.25,639.079 967.187,631.235 926.849,631.235C884.269,631.235 847.964,644.905 817.934,672.246C787.905,699.586 772.89,732.978 772.89,772.42C772.89,813.655 782.526,847.943 801.799,875.283C821.072,902.176 849.085,924.362 885.838,941.842C918.557,957.529 950.604,971.199 981.978,982.853C1013.8,994.058 1044.5,1006.16 1074.08,1019.16C1100.98,1030.81 1126.75,1044.03 1151.4,1058.82C1176.5,1073.62 1198.24,1090.87 1216.61,1110.59Z"/>
            </g>
            <g transform="matrix(1,0,0,1.05525,-54.2756,1048.55)">
                <path d="M1597.12,1137.13L1597.12,1393.23C1597.12,1411.56 1581.41,1426.45 1562.06,1426.45L1309.63,1426.45C1290.28,1426.45 1274.58,1411.56 1274.58,1393.23L1274.58,1137.13C1274.58,1118.79 1290.28,1103.9 1309.63,1103.9L1562.06,1103.9C1581.41,1103.9 1597.12,1118.79 1597.12,1137.13Z" style="fill:none;stroke:white;stroke-width:0.97px;"/>
                <path d="M1597.12,1137.13L1597.12,1393.23C1597.12,1411.56 1581.41,1426.45 1562.06,1426.45L1309.63,1426.45C1290.28,1426.45 1274.58,1411.56 1274.58,1393.23L1274.58,1137.13C1274.58,1118.79 1290.28,1103.9 1309.63,1103.9L1562.06,1103.9C1581.41,1103.9 1597.12,1118.79 1597.12,1137.13Z"/>
            </g>
        </g>
    </g>
</svg>
